<svg xmlns="http://www.w3.org/2000/svg" xmlns:xlink="http://www.w3.org/1999/xlink" width="200" zoomAndPan="magnify" viewBox="0 0 150 70.499998" height="94" preserveAspectRatio="xMidYMid meet" version="1.0"><defs><clipPath id="e28a6ab08b"><path d="M 0.527344 0 L 149.472656 0 L 149.472656 70.003906 L 0.527344 70.003906 Z M 0.527344 0 " clip-rule="nonzero"/></clipPath><clipPath id="4d231867df"><path d="M 45.953125 22 L 72 22 L 72 59.082031 L 45.953125 59.082031 Z M 45.953125 22 " clip-rule="nonzero"/></clipPath><clipPath id="e458ccb404"><path d="M 55 10.675781 L 99 10.675781 L 99 35 L 55 35 Z M 55 10.675781 " clip-rule="nonzero"/></clipPath><clipPath id="ae6facd6e2"><path d="M 60 49 L 104.042969 49 L 104.042969 59 L 60 59 Z M 60 49 " clip-rule="nonzero"/></clipPath></defs><g clip-path="url(#e28a6ab08b)"><path fill="#ffffff" d="M 0.527344 0 L 149.472656 0 L 149.472656 77.449219 L 0.527344 77.449219 Z M 0.527344 0 " fill-opacity="1" fill-rule="nonzero"/><path fill="#ffffff" d="M 0.527344 0 L 149.472656 0 L 149.472656 70.003906 L 0.527344 70.003906 Z M 0.527344 0 " fill-opacity="1" fill-rule="nonzero"/><path fill="#00ffee" d="M 0.527344 0 L 149.472656 0 L 149.472656 70.003906 L 0.527344 70.003906 Z M 0.527344 0 " fill-opacity="1" fill-rule="nonzero"/></g><g clip-path="url(#4d231867df)"><path fill="#ffffff" d="M 61.039062 36.496094 C 61.285156 36.789062 61.652344 36.960938 62.039062 36.960938 C 62.066406 36.960938 62.089844 36.960938 62.117188 36.957031 C 62.53125 36.929688 62.910156 36.710938 63.132812 36.363281 L 66.628906 30.945312 C 66.957031 30.4375 66.878906 29.785156 66.480469 29.363281 L 71.03125 22.609375 L 70.488281 22.25 L 65.929688 29.015625 C 65.382812 28.839844 64.761719 29.042969 64.4375 29.546875 L 61.898438 33.484375 L 58.484375 29.417969 C 58.257812 29.148438 57.945312 28.996094 57.621094 28.960938 C 57.496094 28.917969 57.363281 28.894531 57.226562 28.894531 L 50.945312 28.894531 C 50.929688 28.894531 50.917969 28.898438 50.90625 28.898438 C 50.613281 28.898438 50.117188 28.960938 49.546875 29.242188 C 48.675781 29.675781 47.730469 30.621094 47.070312 32.292969 C 46.402344 33.96875 45.957031 36.398438 45.953125 40.0625 C 45.953125 41.011719 45.984375 42.042969 46.050781 43.164062 C 46.089844 43.851562 46.664062 44.382812 47.347656 44.382812 C 47.375 44.382812 47.398438 44.378906 47.425781 44.378906 C 48.140625 44.335938 48.691406 43.722656 48.648438 43.011719 C 48.582031 41.933594 48.554688 40.953125 48.554688 40.0625 C 48.550781 36.144531 49.125 33.945312 49.6875 32.796875 L 49.6875 57.0625 C 49.6875 58.167969 50.585938 59.0625 51.699219 59.0625 C 52.808594 59.0625 53.707031 58.167969 53.707031 57.0625 L 53.707031 42.460938 L 54.460938 42.460938 L 54.460938 57.0625 C 54.460938 58.167969 55.363281 59.0625 56.472656 59.0625 C 57.582031 59.0625 58.480469 58.167969 58.480469 57.0625 L 58.480469 33.449219 Z M 61.039062 36.496094 " fill-opacity="1" fill-rule="nonzero"/></g><path fill="#ffffff" d="M 57.742188 24.335938 C 57.742188 24.816406 57.648438 25.28125 57.464844 25.726562 C 57.277344 26.171875 57.015625 26.566406 56.671875 26.910156 C 56.328125 27.25 55.933594 27.511719 55.484375 27.699219 C 55.035156 27.882812 54.570312 27.972656 54.085938 27.972656 C 53.597656 27.972656 53.132812 27.882812 52.683594 27.699219 C 52.238281 27.511719 51.839844 27.25 51.496094 26.910156 C 51.15625 26.566406 50.890625 26.171875 50.703125 25.726562 C 50.519531 25.28125 50.425781 24.816406 50.425781 24.335938 C 50.425781 23.851562 50.519531 23.386719 50.703125 22.941406 C 50.890625 22.496094 51.15625 22.101562 51.496094 21.761719 C 51.839844 21.421875 52.238281 21.15625 52.683594 20.972656 C 53.132812 20.789062 53.597656 20.695312 54.085938 20.695312 C 54.570312 20.695312 55.035156 20.789062 55.484375 20.972656 C 55.933594 21.15625 56.328125 21.421875 56.671875 21.761719 C 57.015625 22.101562 57.277344 22.496094 57.464844 22.941406 C 57.648438 23.386719 57.742188 23.851562 57.742188 24.335938 Z M 57.742188 24.335938 " fill-opacity="1" fill-rule="nonzero"/><g clip-path="url(#e458ccb404)"><path fill="#ffffff" d="M 98.234375 10.695312 L 55.3125 10.695312 L 55.3125 18.859375 L 56.128906 18.859375 L 56.128906 11.503906 L 97.421875 11.503906 L 97.421875 33.988281 L 67.28125 33.988281 L 67.28125 34.796875 L 98.234375 34.796875 Z M 98.234375 10.695312 " fill-opacity="1" fill-rule="nonzero"/></g><path fill="#ffffff" d="M 72.167969 45.375 C 72.167969 45.859375 72.078125 46.324219 71.890625 46.769531 C 71.707031 47.214844 71.441406 47.609375 71.097656 47.949219 C 70.753906 48.289062 70.359375 48.554688 69.910156 48.738281 C 69.464844 48.921875 68.996094 49.015625 68.511719 49.015625 C 68.027344 49.015625 67.558594 48.921875 67.113281 48.738281 C 66.664062 48.554688 66.269531 48.289062 65.925781 47.949219 C 65.582031 47.609375 65.316406 47.214844 65.132812 46.769531 C 64.945312 46.324219 64.855469 45.859375 64.855469 45.375 C 64.855469 44.894531 64.945312 44.429688 65.132812 43.984375 C 65.316406 43.535156 65.582031 43.144531 65.925781 42.800781 C 66.269531 42.460938 66.664062 42.199219 67.113281 42.011719 C 67.558594 41.828125 68.027344 41.734375 68.511719 41.734375 C 68.996094 41.734375 69.464844 41.828125 69.910156 42.011719 C 70.359375 42.199219 70.753906 42.460938 71.097656 42.800781 C 71.441406 43.144531 71.707031 43.535156 71.890625 43.984375 C 72.078125 44.429688 72.167969 44.894531 72.167969 45.375 Z M 72.167969 45.375 " fill-opacity="1" fill-rule="nonzero"/><path fill="#ffffff" d="M 85.90625 45.375 C 85.90625 45.859375 85.816406 46.324219 85.628906 46.769531 C 85.441406 47.214844 85.179688 47.609375 84.835938 47.949219 C 84.492188 48.289062 84.097656 48.554688 83.648438 48.738281 C 83.199219 48.921875 82.734375 49.015625 82.25 49.015625 C 81.765625 49.015625 81.296875 48.921875 80.851562 48.738281 C 80.402344 48.554688 80.007812 48.289062 79.664062 47.949219 C 79.320312 47.609375 79.054688 47.214844 78.871094 46.769531 C 78.683594 46.324219 78.589844 45.859375 78.589844 45.375 C 78.589844 44.894531 78.683594 44.429688 78.871094 43.984375 C 79.054688 43.535156 79.320312 43.144531 79.664062 42.800781 C 80.007812 42.460938 80.402344 42.199219 80.851562 42.011719 C 81.296875 41.828125 81.765625 41.734375 82.25 41.734375 C 82.734375 41.734375 83.199219 41.828125 83.648438 42.011719 C 84.097656 42.199219 84.492188 42.460938 84.835938 42.800781 C 85.179688 43.144531 85.441406 43.535156 85.628906 43.984375 C 85.816406 44.429688 85.90625 44.894531 85.90625 45.375 Z M 85.90625 45.375 " fill-opacity="1" fill-rule="nonzero"/><g clip-path="url(#ae6facd6e2)"><path fill="#ffffff" d="M 64.113281 53.839844 L 64.113281 58.742188 L 72.910156 58.742188 L 72.910156 53.84375 C 73.003906 54.042969 73.101562 54.269531 73.199219 54.53125 C 73.535156 55.453125 73.828125 56.816406 73.964844 58.742188 L 76.796875 58.742188 C 76.96875 56.261719 77.414062 54.730469 77.851562 53.839844 L 77.851562 58.742188 L 86.648438 58.742188 L 86.648438 53.84375 C 86.742188 54.042969 86.839844 54.269531 86.9375 54.53125 C 87.269531 55.453125 87.566406 56.816406 87.699219 58.742188 L 90.535156 58.742188 C 90.707031 56.261719 91.152344 54.730469 91.589844 53.839844 L 91.589844 58.742188 L 100.382812 58.742188 L 100.382812 53.84375 C 100.480469 54.042969 100.578125 54.269531 100.671875 54.53125 C 101.007812 55.453125 101.304688 56.816406 101.4375 58.742188 L 104.042969 58.742188 C 103.828125 55.3125 103.140625 53.238281 102.257812 51.894531 C 101.722656 51.089844 101.097656 50.570312 100.523438 50.285156 C 99.964844 50.007812 99.476562 49.945312 99.183594 49.941406 C 99.164062 49.9375 99.148438 49.9375 99.128906 49.9375 L 92.847656 49.9375 C 92.824219 49.9375 92.804688 49.9375 92.78125 49.941406 C 92.488281 49.945312 92.003906 50.007812 91.453125 50.285156 C 90.636719 50.6875 89.765625 51.53125 89.117188 52.996094 C 88.929688 52.582031 88.730469 52.214844 88.519531 51.894531 C 87.984375 51.089844 87.363281 50.570312 86.785156 50.285156 C 86.230469 50.007812 85.738281 49.941406 85.445312 49.9375 C 85.429688 49.9375 85.410156 49.9375 85.390625 49.9375 L 79.109375 49.9375 C 79.085938 49.9375 79.066406 49.9375 79.042969 49.941406 C 78.75 49.945312 78.265625 50.007812 77.714844 50.285156 C 76.898438 50.6875 76.027344 51.53125 75.378906 52.996094 C 75.195312 52.582031 74.992188 52.214844 74.78125 51.894531 C 74.25 51.089844 73.625 50.570312 73.046875 50.285156 C 72.492188 50.003906 72.003906 49.941406 71.710938 49.9375 C 71.691406 49.9375 71.671875 49.9375 71.652344 49.9375 L 65.371094 49.9375 C 65.347656 49.9375 65.328125 49.9375 65.304688 49.941406 C 65.011719 49.945312 64.527344 50.007812 63.976562 50.285156 C 63.101562 50.714844 62.160156 51.660156 61.5 53.332031 C 60.988281 54.621094 60.605469 56.351562 60.453125 58.742188 L 63.058594 58.742188 C 63.230469 56.261719 63.675781 54.730469 64.113281 53.839844 Z M 64.113281 53.839844 " fill-opacity="1" fill-rule="nonzero"/></g><path fill="#ffffff" d="M 99.644531 45.375 C 99.644531 45.859375 99.550781 46.324219 99.367188 46.769531 C 99.179688 47.214844 98.917969 47.609375 98.574219 47.949219 C 98.230469 48.289062 97.835938 48.554688 97.386719 48.738281 C 96.9375 48.921875 96.472656 49.015625 95.988281 49.015625 C 95.503906 49.015625 95.035156 48.921875 94.585938 48.738281 C 94.140625 48.554688 93.742188 48.289062 93.402344 47.949219 C 93.058594 47.609375 92.792969 47.214844 92.609375 46.769531 C 92.421875 46.324219 92.328125 45.859375 92.328125 45.375 C 92.328125 44.894531 92.421875 44.429688 92.609375 43.984375 C 92.792969 43.535156 93.058594 43.144531 93.402344 42.800781 C 93.742188 42.460938 94.140625 42.199219 94.585938 42.011719 C 95.035156 41.828125 95.503906 41.734375 95.988281 41.734375 C 96.472656 41.734375 96.9375 41.828125 97.386719 42.011719 C 97.835938 42.199219 98.230469 42.460938 98.574219 42.800781 C 98.917969 43.144531 99.179688 43.535156 99.367188 43.984375 C 99.550781 44.429688 99.644531 44.894531 99.644531 45.375 Z M 99.644531 45.375 " fill-opacity="1" fill-rule="nonzero"/></svg>